<svg width="77" height="68" viewBox="0 0 77 68" fill="none" xmlns="http://www.w3.org/2000/svg">
<path d="M30 7.2334C13.5 7.2334 0 20.7334 0 37.2334C0 53.7334 13.5 67.2334 30 67.2334C46.5 67.2334 60 53.7334 60 37.2334C60 20.7334 46.5 7.2334 30 7.2334ZM30 14.7334C42.45 14.7334 52.5 24.7834 52.5 37.2334C52.5 49.6834 42.45 59.7334 30 59.7334C17.55 59.7334 7.5 49.6834 7.5 37.2334C7.5 24.7834 17.55 14.7334 30 14.7334ZM26.25 22.2334V38.8834L27.45 39.8584L31.2 43.6084L33.75 46.4584L39.15 41.0584L36.3 38.5084L33.75 35.9584V22.3834H26.25V22.2334Z" fill="#0D7818"/>
<path d="M50.875 1.5H49.375V3V15H37H35.5V16.5V25.5V27H37H49.375V39V40.5H50.875H60.125H61.625V39V27H74H75.5V25.5V16.5V15H74H61.625V3V1.5H60.125H50.875Z" fill="#0D7818" stroke="white" stroke-width="3"/>
</svg>
