<svg width="50" height="50" viewBox="0 0 50 50" fill="none" xmlns="http://www.w3.org/2000/svg">
<path d="M40 6.66663H10C8.15835 6.66663 6.66669 8.15829 6.66669 9.99996V39.9999C6.66669 41.8416 8.15835 43.3333 10 43.3333H26.6667V28.3333H21.6667V23.3333H26.6667V20.6483C26.6667 15.565 29.1433 13.3333 33.3683 13.3333C35.3917 13.3333 36.4617 13.4833 36.9683 13.5516V18.3333H34.0867C32.2933 18.3333 31.6667 19.28 31.6667 21.1966V23.3333H36.9233L36.21 28.3333H31.6667V43.3333H40C41.8417 43.3333 43.3333 41.8416 43.3333 39.9999V9.99996C43.3333 8.15829 41.84 6.66663 40 6.66663Z" fill="white"/>
</svg>
