<svg width="60" height="60" viewBox="0 0 60 60" fill="none" xmlns="http://www.w3.org/2000/svg">
<path d="M33.7079 0C24.6442 0 16.7041 6.45 14.9813 15C6.74157 15 0 21.75 0 30C0 33.975 1.49813 37.425 3.97004 40.05C5.9176 38.4 8.46442 37.5 11.236 37.5C12.7341 37.5 14.1573 37.875 15.4307 38.475C16.7041 33.675 20.9738 30 26.2172 30C31.3858 30 35.7303 33.675 37.0037 38.475C38.2772 37.95 39.7004 37.5 41.1985 37.5C45.9176 37.5 49.8127 40.425 51.5356 44.55C56.3296 43.275 60 38.925 60 33.75C60 28.875 56.8539 24.075 52.5094 22.5V18.75C52.5094 8.4 44.1199 0 33.7828 0H33.7079ZM25.0187 37.5C24.2435 37.7609 23.5749 38.2687 23.115 38.9459C22.6552 39.623 22.4293 40.4323 22.4719 41.25V56.25C22.4719 57.2446 22.8665 58.1984 23.5689 58.9016C24.2713 59.6049 25.2239 60 26.2172 60C27.2105 60 28.1632 59.6049 28.8656 58.9016C29.5679 58.1984 29.9625 57.2446 29.9625 56.25V41.25C29.9716 40.6952 29.8576 40.1454 29.6288 39.64C29.3999 39.1347 29.0619 38.6865 28.6392 38.3278C28.2164 37.9691 27.7194 37.7088 27.184 37.5656C26.6486 37.4225 26.0882 37.4001 25.5431 37.5C25.3934 37.491 25.2433 37.491 25.0936 37.5H25.0187ZM10.0375 45C9.26224 45.2609 8.59364 45.7687 8.13376 46.4459C7.67388 47.123 7.44801 47.9323 7.49064 48.75V56.25C7.49064 57.2446 7.88523 58.1984 8.58761 58.9016C9.29 59.6049 10.2426 60 11.236 60C12.2293 60 13.1819 59.6049 13.8843 58.9016C14.5867 58.1984 14.9813 57.2446 14.9813 56.25V48.75C14.9903 48.1952 14.8763 47.6454 14.6475 47.14C14.4186 46.6347 14.0806 46.1865 13.6579 45.8278C13.2351 45.4691 12.7381 45.2088 12.2027 45.0656C11.6673 44.9225 11.1069 44.9001 10.5618 45C10.4121 44.991 10.262 44.991 10.1124 45H10.0375ZM40 45C39.2248 45.2609 38.5562 45.7687 38.0963 46.4459C37.6364 47.123 37.4106 47.9323 37.4532 48.75V56.25C37.4532 57.2446 37.8478 58.1984 38.5502 58.9016C39.2525 59.6049 40.2052 60 41.1985 60C42.1918 60 43.1445 59.6049 43.8468 58.9016C44.5492 58.1984 44.9438 57.2446 44.9438 56.25V48.75C44.9529 48.1952 44.8389 47.6454 44.61 47.14C44.3812 46.6347 44.0432 46.1865 43.6204 45.8278C43.1977 45.4691 42.7007 45.2088 42.1653 45.0656C41.6299 44.9225 41.0694 44.9001 40.5243 45C40.3747 44.991 40.2246 44.991 40.0749 45H40Z" fill="#0D7818"/>
</svg>
